<svg height="480pt" viewBox="0 0 479 480" width="480pt" xmlns="http://www.w3.org/2000/svg" xmlns:xlink="http://www.w3.org/1999/xlink"><linearGradient id="a"><stop offset="0" stop-color="#f9a86d"/><stop offset=".503" stop-color="#f05361"/><stop offset="1" stop-color="#b72563"/></linearGradient><linearGradient id="b" gradientUnits="userSpaceOnUse" x1="-23.931282" x2="499.076718" xlink:href="#a" y1="268" y2="268"/><linearGradient id="c" gradientUnits="userSpaceOnUse" x1="-23.931282" x2="499.076718" xlink:href="#a" y1="288" y2="288"/><linearGradient id="d" gradientUnits="userSpaceOnUse" x1="-23.931282" x2="499.076718" xlink:href="#a" y1="344" y2="344"/><linearGradient id="e" gradientUnits="userSpaceOnUse" x1="-23.931282" x2="499.076718" xlink:href="#a" y1="20" y2="20"/><linearGradient id="f" gradientUnits="userSpaceOnUse" x1="-23.931466" x2="499.076534" xlink:href="#a" y1="32.000004" y2="32.000004"/><linearGradient id="g" gradientUnits="userSpaceOnUse" x1="-23.935512" x2="499.072488" xlink:href="#a" y1="71.995994" y2="71.995994"/><linearGradient id="h" gradientUnits="userSpaceOnUse" x1="-23.927339" x2="499.080661" xlink:href="#a" y1="32.000897" y2="32.000897"/><linearGradient id="i" gradientUnits="userSpaceOnUse" x1="-23.930561" x2="499.077439" xlink:href="#a" y1="72.003522" y2="72.003522"/><path d="m352.070312 368h-16v-56c0-4.417969-3.582031-8-8-8h-24v-56c0-4.417969-3.582031-8-8-8h-48v-69.808594c10.328126-14.707031 15.910157-32.21875 16-50.191406 0-35.347656-28.65625-64-64-64-35.347656 0-64 28.652344-64 64 .085938 17.972656 5.667969 35.484375 16 50.191406v69.808594h-48c-13.257812 0-24 10.746094-24 24v40h-24c-4.417968 0-8 3.582031-8 8v56.640625c-28.875 4.394531-49.519531 30.242187-47.425781 59.375 2.09375 29.128906 26.21875 51.757813 55.425781 51.984375h424v-320h-128zm16-160h96v16h-96zm-224 80h32v41.054688l-11.5625-7.710938c-2.6875-1.792969-6.191406-1.792969-8.878906 0l-11.558594 7.710938zm48 0h96v16h-96zm-24-96h64v16h-64zm32-120c26.496094.027344 47.972657 21.5 48 48-.007812 14.976562-4.816406 29.558594-13.722656 41.601562-1.460937 1.496094-2.28125 3.503907-2.277344 5.597657v8.800781h-24v-32h16v-16h-48v16h16v32h-24v-8.800781c0-2.09375-.816406-4.101563-2.28125-5.597657-8.90625-12.042968-13.714843-26.625-13.71875-41.601562.023438-26.5 21.5-47.972656 48-48zm-32 152h64v16h-64zm-72 40c0-4.417969 3.582032-8 8-8h184v16h-176v16h16v16h-32zm-32 56h64v24c-.003906 2.949219 1.621094 5.664062 4.222657 7.054688 2.605469 1.390624 5.761719 1.238281 8.214843-.398438l19.5625-13.054688 19.558594 13.039063c2.453125 1.636719 5.605469 1.789063 8.207032.402344 2.601562-1.386719 4.226562-4.09375 4.234374-7.042969v-24h128v16h-104v16h104v16h-256zm288 144h-296c-22.09375 0-40-17.910156-40-40s17.90625-40 40-40h296v16h-280c-13.257812 0-24 10.746094-24 24s10.742188 24 24 24h280zm56-48v-16h16v16h16v-16h24v32h-96v-32h24v16zm-56 16h-280c-4.417968 0-8-3.582031-8-8s3.582032-8 8-8h280zm112 32h-96v-16h96zm0-80h-96v-144h96zm0-208v16h-96v-16zm0 0" fill="url(#b)"/><path d="m416.070312 320c17.671876 0 32-14.328125 32-32s-14.328124-32-32-32c-17.675781 0-32 14.328125-32 32s14.324219 32 32 32zm0-48c8.835938 0 16 7.164062 16 16s-7.164062 16-16 16c-8.839843 0-16-7.164062-16-16s7.160157-16 16-16zm0 0" fill="url(#c)"/><path d="m88.070312 336h16v16h-16zm0 0" fill="url(#d)"/><path d="m192.070312 0h16v40h-16zm0 0" fill="url(#e)"/><path d="m121.667969 20.800781 12.792969-9.597656 24 32-12.792969 9.597656zm0 0" fill="url(#f)"/><path d="m85.09375 71.425781 5.941406-14.855469 40 16-5.945312 14.855469zm0 0" fill="url(#g)"/><path d="m241.675781 43.203125 23.992188-32.003906 12.796875 9.59375-23.996094 32.003906zm0 0" fill="url(#h)"/><path d="m269.09375 72.5625 40.003906-15.984375 5.9375 14.859375-40.003906 15.984375zm0 0" fill="url(#i)"/></svg>