<svg height="507pt" viewBox="-5 0 507 507.414" width="507pt" xmlns="http://www.w3.org/2000/svg"><path d="m6.414062 507.414062h351.015626c3.3125 0 5.777343-3.089843 5.777343-6.398437v-155.570313l132.929688-133.042968c2.355469-2.328125 2.375-6.125.050781-8.484375l-48.179688-48.203125c-2.382812-2.339844-6.199218-2.339844-8.578124 0l-76.222657 75.984375v-159.636719c.035157-1.53125-.566406-3.011719-1.660156-4.082031-1.09375-1.070313-2.585937-1.636719-4.117187-1.566407h-83.792969l-3.03125-7c-6.640625-15.160156-21.605469-24.964843-38.15625-25h-4.019531c-6.621094-20.429687-25.605469-34.304687-47.082032-34.414062-21.441406 0-40.140625 13.414062-46.96875 34.414062h-3.554687c-16.546875.035157-31.515625 9.839844-38.15625 25l-3.035157 7h-83.21875c-3.3125 0-6.207031 2.332032-6.207031 5.648438v428.953125c.066407 3.429687 2.777344 6.226563 6.207031 6.398437zm64.613282-391.964843c1.082031 1.757812 2.964844 2.867187 5.023437 2.964843h211.167969c2.058594-.113281 3.9375-1.222656 5.027344-2.976562 1.09375-1.75 1.269531-3.921875.464844-5.824219l-3.972657-9.199219h26.46875v179.699219l-28.621093 28.300781h-109.378907c-3.3125 0-6 2.6875-6 6s2.6875 6 6 6h97.359375l-49.386718 49.300782c-.738282.734375-1.269532 1.648437-1.546876 2.652344l-5.519531 20.046874h-40.90625c-3.3125 0-6 2.6875-6 6s2.6875 6 6 6h37.601563l-9.636719 34.988282c-.574219 2.082031.015625 4.308594 1.542969 5.835937 1.523437 1.527344 3.753906 2.113281 5.835937 1.542969l67.03125-18.460938c1.042969-.273437 2.003907-.804687 2.789063-1.546874l32.835937-32.757813v68.398437h-266v-362h25.324219l-3.972656 9.199219c-.8125 1.90625-.636719 4.085938.46875 5.835938zm161.441406 270.046875 33.992188 33.992187-46.914063 12.917969zm45.519531 28.550781-40.082031-40.082031 54.714844-54.621094c.585937-.40625 1.09375-.914062 1.5-1.5l114.386718-114.1875 39.789063 39.789062zm165.800781-245.613281 39.730469 39.730468-26.746093 26.789063-39.773438-39.773437zm-92.582031-90.019532v165.265626l-24 24.449218v-173.664062c-.121093-3.375-2.890625-6.046875-6.269531-6.050782h-37.464844l-4.566406-10zm-247.550781-14.101562c4.714844-10.816406 15.367188-17.832031 27.167969-17.898438h8.082031c2.800781-.039062 5.210938-1.988281 5.839844-4.71875 4.191406-17.816406 18.898437-29.832031 36.601562-29.832031 17.667969.03125 32.910156 12.40625 36.566406 29.691407.566407 2.804687 3.015626 4.832031 5.878907 4.859374h8.652343c11.800782.066407 22.453126 7.082032 27.167969 17.898438l18.417969 42.101562h-192.792969zm-91.449219 14.101562h72.15625l-4.5625 10h-36.894531c-1.566406.023438-3.054688.679688-4.128906 1.820313-1.074219 1.136719-1.640625 2.664063-1.570313 4.230469v373.507812c0 3.3125 2.386719 6.441406 5.699219 6.441406h278.03125c3.449219-.183593 6.179688-2.988281 6.269531-6.441406v-85.976562l24-24.53125v137.949218h-339zm0 0"/><path d="m64.914062 215c-2.371093 2.3125-2.421874 6.109375-.109374 8.484375l21.050781 21.617187c2.285156 2.347657 6.035156 2.425782 8.417969.175782l40.222656-37.964844c2.410156-2.273438 2.519531-6.070312.246094-8.480469-2.273438-2.410156-6.074219-2.519531-8.480469-.246093l-35.929688 33.910156-16.929687-17.382813c-2.3125-2.375-6.113282-2.425781-8.488282-.113281zm0 0"/><path d="m177.207031 236.414062h118c3.3125 0 6-2.6875 6-6s-2.6875-6-6-6h-118c-3.3125 0-6 2.6875-6 6s2.6875 6 6 6zm0 0"/><path d="m126.261719 282.515625-35.929688 33.914063-16.929687-17.382813c-2.3125-2.375-6.113282-2.425781-8.488282-.113281s-2.425781 6.109375-.113281 8.484375l21.050781 21.617187c2.289063 2.347656 6.035157 2.425782 8.417969.175782l40.226563-37.96875c2.410156-2.273438 2.519531-6.070313.246094-8.480469-2.273438-2.410157-6.074219-2.519531-8.480469-.246094zm0 0"/><path d="m126.261719 366.453125-35.929688 33.910156-16.929687-17.382812c-2.3125-2.375-6.113282-2.425781-8.488282-.113281s-2.425781 6.109374-.113281 8.484374l21.050781 21.617188c2.289063 2.347656 6.035157 2.425781 8.417969.175781l40.222657-37.964843c2.378906-2.28125 2.472656-6.054688.210937-8.453126-2.261719-2.394531-6.03125-2.519531-8.445313-.273437zm0 0"/></svg>